<?xml version='1.0' encoding='utf-8'?>
<svg xmlns="http://www.w3.org/2000/svg" width="921" height="329" viewBox="0 0 921 329" fill="none">
<path d="M304.039 221.16C298.471 221.16 293.743 220.104 289.855 217.992C286.015 215.832 283.087 212.976 281.071 209.424C279.103 205.824 278.119 201.864 278.119 197.544C278.119 193.944 278.671 190.656 279.775 187.68C280.879 184.704 282.655 182.088 285.103 179.832C287.599 177.528 290.935 175.608 295.111 174.072C297.991 173.016 301.423 172.08 305.407 171.264C309.391 170.448 313.903 169.68 318.943 168.96C323.983 168.192 329.527 167.352 335.575 166.44L328.519 170.328C328.519 165.72 327.415 162.336 325.207 160.176C322.999 158.016 319.303 156.936 314.119 156.936C311.239 156.936 308.239 157.632 305.119 159.024C301.999 160.416 299.815 162.888 298.567 166.44L280.855 160.824C282.823 154.392 286.519 149.16 291.943 145.128C297.367 141.096 304.759 139.08 314.119 139.08C320.983 139.08 327.079 140.136 332.407 142.248C337.735 144.36 341.767 148.008 344.503 153.192C346.039 156.072 346.951 158.952 347.239 161.832C347.527 164.712 347.671 167.928 347.671 171.48V219H330.535V203.016L332.983 206.328C329.191 211.56 325.087 215.352 320.671 217.704C316.303 220.008 310.759 221.16 304.039 221.16ZM308.215 205.752C311.815 205.752 314.839 205.128 317.287 203.88C319.783 202.584 321.751 201.12 323.191 199.488C324.679 197.856 325.687 196.488 326.215 195.384C327.223 193.272 327.799 190.824 327.943 188.04C328.135 185.208 328.231 182.856 328.231 180.984L333.991 182.424C328.183 183.384 323.479 184.2 319.879 184.872C316.279 185.496 313.375 186.072 311.167 186.6C308.959 187.128 307.015 187.704 305.335 188.328C303.415 189.096 301.855 189.936 300.655 190.848C299.503 191.712 298.639 192.672 298.063 193.728C297.535 194.784 297.271 195.96 297.271 197.256C297.271 199.032 297.703 200.568 298.567 201.864C299.479 203.112 300.751 204.072 302.383 204.744C304.015 205.416 305.959 205.752 308.215 205.752ZM395.337 221.304C389.241 221.304 384.273 220.272 380.433 218.208C376.593 216.144 373.593 213.528 371.433 210.36C369.321 207.192 367.809 203.904 366.896 200.496C365.985 197.04 365.433 193.896 365.241 191.064C365.049 188.232 364.953 186.168 364.953 184.872V141.24H384.825V177.96C384.825 179.736 384.921 182.016 385.113 184.8C385.305 187.536 385.905 190.296 386.913 193.08C387.921 195.864 389.553 198.192 391.809 200.064C394.113 201.936 397.353 202.872 401.529 202.872C403.209 202.872 405.009 202.608 406.929 202.08C408.849 201.552 410.649 200.544 412.329 199.056C414.009 197.52 415.377 195.288 416.433 192.36C417.537 189.384 418.089 185.496 418.089 180.696L429.321 186.024C429.321 192.168 428.073 197.928 425.577 203.304C423.081 208.68 419.313 213.024 414.273 216.336C409.281 219.648 402.969 221.304 395.337 221.304ZM420.537 219V193.224H418.089V141.24H437.817V219H420.537ZM504.595 219C499.219 220.008 493.939 220.44 488.755 220.296C483.619 220.2 479.011 219.312 474.931 217.632C470.899 215.904 467.827 213.144 465.715 209.352C463.795 205.8 462.787 202.2 462.691 198.552C462.595 194.856 462.547 190.68 462.547 186.024V119.64H482.131V184.872C482.131 187.896 482.155 190.632 482.203 193.08C482.299 195.48 482.803 197.4 483.715 198.84C485.443 201.576 488.203 203.064 491.995 203.304C495.787 203.544 499.987 203.352 504.595 202.728V219ZM449.299 156.36V141.24H504.595V156.36H449.299ZM552.697 221.16C544.873 221.16 538.009 219.408 532.105 215.904C526.201 212.4 521.593 207.576 518.281 201.432C515.017 195.24 513.385 188.136 513.385 180.12C513.385 172.008 515.065 164.88 518.425 158.736C521.785 152.544 526.417 147.72 532.321 144.264C538.225 140.808 545.017 139.08 552.697 139.08C560.521 139.08 567.385 140.832 573.289 144.336C579.241 147.84 583.873 152.688 587.185 158.88C590.497 165.024 592.153 172.104 592.153 180.12C592.153 188.184 590.473 195.312 587.113 201.504C583.801 207.648 579.169 212.472 573.217 215.976C567.313 219.432 560.473 221.16 552.697 221.16ZM552.697 202.872C558.985 202.872 563.665 200.76 566.737 196.536C569.857 192.264 571.417 186.792 571.417 180.12C571.417 173.208 569.833 167.688 566.665 163.56C563.545 159.432 558.889 157.368 552.697 157.368C548.425 157.368 544.921 158.328 542.185 160.248C539.449 162.168 537.409 164.832 536.065 168.24C534.769 171.648 534.121 175.608 534.121 180.12C534.121 187.08 535.681 192.624 538.801 196.752C541.969 200.832 546.601 202.872 552.697 202.872ZM607.986 219V115.32H641.538C642.354 115.32 644.034 115.344 646.578 115.392C649.122 115.44 651.57 115.608 653.922 115.896C662.274 116.904 669.354 119.808 675.162 124.608C680.97 129.408 685.386 135.504 688.41 142.896C691.434 150.288 692.946 158.376 692.946 167.16C692.946 175.944 691.434 184.032 688.41 191.424C685.386 198.816 680.97 204.912 675.162 209.712C669.354 214.512 662.274 217.416 653.922 218.424C651.57 218.712 649.122 218.88 646.578 218.928C644.034 218.976 642.354 219 641.538 219H607.986ZM627.858 200.568H641.538C642.834 200.568 644.586 200.544 646.794 200.496C649.002 200.4 650.994 200.184 652.77 199.848C657.282 198.936 660.954 196.824 663.786 193.512C666.666 190.2 668.778 186.216 670.122 181.56C671.514 176.904 672.21 172.104 672.21 167.16C672.21 161.976 671.49 157.056 670.05 152.4C668.658 147.744 666.522 143.808 663.642 140.592C660.762 137.376 657.138 135.336 652.77 134.472C650.994 134.088 649.002 133.872 646.794 133.824C644.586 133.776 642.834 133.752 641.538 133.752H627.858V200.568ZM749.389 221.16C741.709 221.16 734.773 219.816 728.581 217.128C722.437 214.392 717.373 210.504 713.389 205.464C709.453 200.376 706.957 194.328 705.901 187.32L726.349 184.296C727.789 190.248 730.765 194.832 735.277 198.048C739.789 201.264 744.925 202.872 750.685 202.872C753.901 202.872 757.021 202.368 760.045 201.36C763.069 200.352 765.541 198.864 767.461 196.896C769.429 194.928 770.413 192.504 770.413 189.624C770.413 188.568 770.245 187.56 769.909 186.6C769.621 185.592 769.117 184.656 768.397 183.792C767.677 182.928 766.645 182.112 765.301 181.344C764.005 180.576 762.349 179.88 760.333 179.256L733.405 171.336C731.389 170.76 729.037 169.944 726.349 168.888C723.709 167.832 721.141 166.32 718.645 164.352C716.149 162.384 714.061 159.792 712.381 156.576C710.749 153.312 709.933 149.208 709.933 144.264C709.933 137.304 711.685 131.52 715.189 126.912C718.693 122.304 723.373 118.872 729.229 116.616C735.085 114.36 741.565 113.256 748.669 113.304C755.821 113.4 762.205 114.624 767.821 116.976C773.437 119.328 778.141 122.76 781.933 127.272C785.725 131.736 788.461 137.208 790.141 143.688L768.973 147.288C768.205 143.928 766.789 141.096 764.725 138.792C762.661 136.488 760.189 134.736 757.309 133.536C754.477 132.336 751.501 131.688 748.381 131.592C745.309 131.496 742.405 131.928 739.669 132.888C736.981 133.8 734.773 135.144 733.045 136.92C731.365 138.696 730.525 140.808 730.525 143.256C730.525 145.512 731.221 147.36 732.613 148.8C734.005 150.192 735.757 151.32 737.869 152.184C739.981 153.048 742.141 153.768 744.349 154.344L762.349 159.24C765.037 159.96 768.013 160.92 771.277 162.12C774.541 163.272 777.661 164.904 780.637 167.016C783.661 169.08 786.133 171.816 788.053 175.224C790.021 178.632 791.005 182.952 791.005 188.184C791.005 193.752 789.829 198.624 787.477 202.8C785.173 206.928 782.053 210.36 778.117 213.096C774.181 215.784 769.717 217.8 764.725 219.144C759.781 220.488 754.669 221.16 749.389 221.16ZM806.83 219V115.32H824.398L858.67 184.152L892.942 115.32H910.51V219H892.222V157.08L862.126 219H855.214L825.118 157.08V219H806.83Z" fill="white"/>
<path d="M113.075 97.2476C123.73 91.5103 136.555 91.5102 147.21 97.2476L183.353 116.708C195.013 122.987 202.285 135.162 202.285 148.406V200.451C202.285 213.694 195.013 225.869 183.353 232.148L147.21 251.609C136.555 257.346 123.73 257.346 113.075 251.609L76.9326 232.148C65.2719 225.869 58 213.694 58 200.451V148.406C58 135.162 65.2719 122.987 76.9326 116.708L113.075 97.2476Z" fill="url(#paint0_linear_291_6036)" stroke="#8F23FA" stroke-width="24"/>
<path d="M58 130L121.077 161.805C126.997 164.79 133.988 164.76 139.883 161.725L201.5 130" stroke="#8F23FA" stroke-width="24"/>
<defs>
<linearGradient id="paint0_linear_291_6036" x1="28" y1="102" x2="214" y2="233.928" gradientUnits="userSpaceOnUse">
<stop stop-color="white" stop-opacity="0"/>
<stop offset="1" stop-color="#AA56FF" stop-opacity="0.16"/>
</linearGradient>
</defs>
</svg>